PathFileType	4	(X/Y/Z)	Walk5.trc
DataRate	CameraRate	NumFrames	NumMarkers	Units	OrigDataRate	OrigDataStartFrame	OrigNumFrames
200.000000	200.000000	7	59	mm	200.000000	443	561
Frame#	Times		LFHD		C7		CLAV		STRN		RBack		LASI		RASI		RACR1		RUA1		RElbow		RFA1		RWRU		RCAR		LACR1		LFA1		LWRR		LCAR		RTH1		RTH2		RTH4		RLFC		LTH1		LTH3		LTH2		LLFC		LTB1		LTB3		LTB2		LTB4		LMT1		LToe		LMMAL		T10		RWRR		LMT5		LTH4		RFHD		LLMAL		RTH3		LPSI		RPSI		RBHD		LElbowM		RMT1		LUA1		RTB1		RMMAL		LBHD		LElbow		RTB2		RTB4		LWRU		RMT5		RElbowM		RTB3		RToe		RLMAL		RCAL		LCAL
			X1	Y1	Z1	X2	Y2	Z2	X3	Y3	Z3	X4	Y4	Z4	X5	Y5	Z5	X6	Y6	Z6	X7	Y7	Z7	X8	Y8	Z8	X9	Y9	Z9	X10	Y10	Z10	X11	Y11	Z11	X12	Y12	Z12	X13	Y13	Z13	X14	Y14	Z14	X15	Y15	Z15	X16	Y16	Z16	X17	Y17	Z17	X18	Y18	Z18	X19	Y19	Z19	X20	Y20	Z20	X21	Y21	Z21	X22	Y22	Z22	X23	Y23	Z23	X24	Y24	Z24	X25	Y25	Z25	X26	Y26	Z26	X27	Y27	Z27	X28	Y28	Z28	X29	Y29	Z29	X30	Y30	Z30	X31	Y31	Z31	X32	Y32	Z32	X33	Y33	Z33	X34	Y34	Z34	X35	Y35	Z35	X36	Y36	Z36	X37	Y37	Z37	X38	Y38	Z38	X39	Y39	Z39	X40	Y40	Z40	X41	Y41	Z41	X42	Y42	Z42	X43	Y43	Z43	X44	Y44	Z44	X45	Y45	Z45	X46	Y46	Z46	X47	Y47	Z47	X48	Y48	Z48	X49	Y49	Z49	X50	Y50	Z50	X51	Y51	Z51	X52	Y52	Z52	X53	Y53	Z53	X54	Y54	Z54	X55	Y55	Z55	X56	Y56	Z56	X57	Y57	Z57	X58	Y58	Z58	X59	Y59	Z59

443	2.215	513.89	1583.5	-44.653	356.19	1413	-4.7862	483.74	1336.9	-13.195	565.02	1114.8	-9.0889	318.9	1307.1	95.936	510.32	936.45	-140.13	519.51	941.61	136.4	437.67	1348.9	161.98	453.06	1139.1	226.82	456.65	1031.2	252.23	559.47	916.44	232.76	573.33	804.22	239.29	630.97	785.69	224.36	415.19	1346.7	-181.03	379.76	899.3	-258.88	374.11	736.5	-269.11	390.77	778.84	-227.93	414.31	739.05	174.03	465.71	649.28	118.48	401.17	646.99	151.46	362.67	451.33	118.16	451.36	731.86	-178.71	516.92	558	-155.22	549.21	666.78	-135.35	548.13	459.01	-140.97	618.37	377.16	-72.021	660.64	194.4	-79.827	605.5	280.61	-142.84	641.55	284.81	-80.096	806.68	93.74	-100.99	837.78	103.2	-129.12	674.56	92.649	-46.931	328.09	1127.7	1.4041	608.96	830.92	179.68	770.56	59.307	-158.77	484.51	640.92	-169.38	523.39	1586.5	27.921	654.66	71.042	-124.03	389.81	555.89	132.14	301.91	960.77	-48.745	306.95	972.93	64.915	356.38	1538.7	71.181	337.14	1009.4	-164.11	331.48	36.728	42.021	373.33	1140.2	-224.25	344.02	325.24	39.95	202.42	85.763	3.0317	345.41	1544.4	-55.196	344.77	1023.7	-233.08	294.29	246.88	107.49	300.84	242.75	36.871	331.86	785.75	-270.12	282.55	22.198	124.3	420.77	1005.1	178.39	257.96	160.92	33.351	374.8	27.027	80.855	182.42	74.722	83.201	129.68	47.954	35.9	626.8	24.623	-64.244
444	2.22	519.38	1582.7	-45.528	361.89	1412.1	-5.6281	489.48	1335.9	-13.902	570.72	1113.8	-9.6403	324.55	1306.3	95.165	516.25	935.34	-140.43	524.95	940.94	136.24	443.27	1348.1	161.23	458.85	1138.5	226.28	462.74	1030.5	251.88	566	916.18	232.18	580.31	804.02	238.62	638.06	785.79	223.66	421.04	1345.7	-181.79	383.85	898.25	-259.23	376.9	735.47	-269.52	393.98	777.63	-228.34	419.27	738.37	173.71	470.05	648.29	118.03	405.66	646.4	151.28	365.91	450.87	117.98	456.68	730.66	-179.36	521.74	556.64	-155.57	554.14	665.32	-135.45	553.53	457.95	-141.32	624.91	376.99	-72.211	670.25	194.81	-80.334	613.85	280.33	-143.3	649.69	284.97	-80.447	818.19	95.928	-101.21	849.29	105.99	-129.04	685.79	93.149	-47.539	333.81	1126.8	0.6613	615.85	830.91	179	782.87	61.052	-159.12	489.59	639.62	-169.91	528.86	1585.8	27.046	666.43	71.353	-124.73	393.8	555.3	131.97	307.78	959.8	-49.528	312.65	971.98	64.109	361.92	1537.7	70.286	342.42	1008.5	-164.28	331.51	36.686	41.988	378.7	1139.2	-224.72	346.31	324.73	39.904	202.8	86.345	3.148	350.97	1543.4	-56.092	349.79	1022.8	-233.32	295.85	246.87	107.48	302.44	242.61	36.871	335.02	785.05	-270.4	282.56	22.201	124.26	426.64	1004.1	178.11	258.92	161.09	33.418	374.83	27.025	80.859	182.72	75.483	83.279	129.83	49.043	36.02	639.05	24.328	-65.083
445	2.225	524.88	1581.9	-46.428	367.61	1411.2	-6.4989	495.23	1335	-14.642	576.44	1112.8	-10.236	330.23	1305.4	94.36	522.25	934.26	-140.72	530.45	940.27	136.06	448.89	1347.3	160.44	464.63	1137.8	225.71	468.78	1029.9	251.52	572.46	915.91	231.6	587.19	803.79	237.95	645.04	785.86	222.96	426.91	1344.6	-182.59	388.01	897.22	-259.6	379.8	734.45	-269.93	397.29	776.45	-228.76	424.28	737.68	173.36	474.45	647.31	117.6	410.22	645.81	151.06	369.22	450.42	117.78	462.15	729.54	-180.05	526.84	555.42	-155.88	559.26	664.04	-135.53	559.12	456.99	-141.66	631.39	376.76	-72.377	679.3	195.12	-80.775	621.92	280.05	-143.73	657.5	285.04	-80.753	828.84	97.737	-101.34	859.95	108.31	-128.88	696.19	93.543	-48.071	339.56	1125.9	-0.11589	622.65	830.88	178.33	794.27	62.462	-159.37	494.9	638.44	-170.44	534.34	1585.1	26.146	677.33	71.61	-125.36	397.87	554.7	131.78	313.7	958.85	-50.34	318.39	971.04	63.281	367.48	1536.7	69.365	347.74	1007.7	-164.49	331.55	36.647	41.959	384.14	1138.2	-225.25	348.64	324.24	39.861	203.19	86.983	3.2877	356.53	1542.3	-57.012	354.86	1021.9	-233.61	297.45	246.89	107.48	304.07	242.49	36.883	338.3	784.36	-270.7	282.57	22.197	124.23	432.51	1003	177.8	259.9	161.31	33.507	374.86	27.023	80.847	183.04	76.3	83.375	129.99	50.202	36.17	650.34	24.075	-65.847
446	2.23	530.4	1581.1	-47.352	373.34	1410.3	-7.3989	501.01	1334.1	-15.415	582.19	1111.9	-10.877	335.93	1304.6	93.522	528.32	933.21	-141	536.01	939.6	135.84	454.53	1346.5	159.61	470.42	1137.1	225.11	474.78	1029.3	251.15	578.85	915.61	231.02	593.98	803.55	237.3	651.91	785.89	222.28	432.8	1343.6	-183.41	392.26	896.19	-259.99	382.82	733.45	-270.35	400.69	775.29	-229.18	429.34	736.98	172.99	478.92	646.33	117.17	414.84	645.21	150.81	372.61	449.97	117.57	467.8	728.53	-180.76	532.23	554.36	-156.17	564.58	662.94	-135.6	564.9	456.13	-141.99	637.8	376.45	-72.524	687.8	195.29	-81.146	629.68	279.74	-144.12	665	285	-81.014	838.61	99.111	-101.37	869.76	110.1	-128.65	705.76	93.799	-48.522	345.35	1125	-0.9247	629.35	830.81	177.66	804.75	63.477	-159.53	500.44	637.4	-170.96	539.83	1584.4	25.223	687.34	71.774	-125.92	402.01	554.1	131.58	319.66	957.92	-51.178	324.18	970.1	62.433	373.04	1535.8	68.422	353.11	1006.8	-164.74	331.58	36.61	41.934	389.64	1137.2	-225.82	351.02	323.77	39.823	203.61	87.68	3.4527	362.11	1541.2	-57.953	359.98	1021	-233.94	299.09	246.95	107.5	305.75	242.4	36.908	341.69	783.69	-271.03	282.59	22.187	124.2	438.38	1002	177.44	260.9	161.57	33.62	374.9	27.018	80.822	183.36	77.177	83.491	130.17	51.438	36.351	660.62	23.834	-66.525
447	2.235	535.92	1580.3	-48.298	379.08	1409.4	-8.328	506.81	1333.3	-16.222	587.96	1111	-11.562	341.65	1303.7	92.651	534.47	932.21	-141.27	541.62	938.95	135.58	460.19	1345.6	158.75	476.2	1136.4	224.48	480.73	1028.7	250.76	585.16	915.29	230.45	600.68	803.29	236.65	658.67	785.88	221.6	438.71	1342.5	-184.27	396.59	895.19	-260.41	385.97	732.47	-270.77	404.2	774.17	-229.61	434.47	736.28	172.59	483.47	645.35	116.73	419.53	644.6	150.51	376.07	449.53	117.34	473.63	727.63	-181.48	537.92	553.47	-156.43	570.12	662.04	-135.65	570.87	455.37	-142.32	644.16	376.07	-72.655	695.75	195.3	-81.446	637.14	279.39	-144.47	672.18	284.84	-81.231	847.51	100	-101.31	878.73	111.28	-128.33	714.48	93.888	-48.89	351.19	1124.1	-1.7632	635.95	830.71	177.01	814.33	64.047	-159.58	506.23	636.5	-171.46	545.33	1583.7	24.277	696.47	71.811	-126.39	406.24	553.49	131.36	325.65	957.02	-52.041	330.01	969.17	61.568	378.63	1534.8	67.458	358.51	1006	-165.04	331.63	36.576	41.916	395.2	1136.2	-226.44	353.45	323.31	39.789	204.06	88.44	3.6458	367.69	1540.1	-58.915	365.15	1020.2	-234.32	300.78	247.05	107.54	307.47	242.35	36.948	345.2	783.02	-271.39	282.62	22.171	124.18	444.27	1001	177.04	261.94	161.87	33.758	374.93	27.009	80.785	183.7	78.119	83.63	130.35	52.755	36.566	669.89	23.584	-67.113
448	2.24	541.45	1579.6	-49.264	384.84	1408.5	-9.2858	512.63	1332.4	-17.063	593.77	1110.1	-12.291	347.4	1302.9	91.745	540.69	931.25	-141.56	547.29	938.28	135.29	465.87	1344.8	157.86	481.99	1135.8	223.83	486.63	1028.1	250.37	591.39	914.95	229.88	607.27	803	236.01	665.32	785.83	220.94	444.63	1341.5	-185.15	400.99	894.2	-260.85	389.24	731.51	-271.2	407.82	773.07	-230.04	439.65	735.57	172.17	488.1	644.39	116.29	424.3	643.98	150.18	379.62	449.1	117.11	479.66	726.86	-182.21	543.91	552.76	-156.66	575.89	661.33	-135.68	577.04	454.7	-142.64	650.47	375.62	-72.773	703.16	195.14	-81.675	644.31	278.99	-144.77	679.05	284.54	-81.405	855.55	100.37	-101.15	886.89	111.82	-127.93	722.38	93.791	-49.175	357.08	1123.2	-2.6306	642.45	830.58	176.38	823.01	64.138	-159.52	512.27	635.75	-171.94	550.85	1583	23.311	704.72	71.699	-126.79	410.55	552.88	131.13	331.69	956.15	-52.926	335.89	968.25	60.689	384.22	1533.9	66.475	363.93	1005.2	-165.38	331.67	36.547	41.905	400.81	1135.2	-227.1	355.95	322.86	39.762	204.53	89.267	3.8702	373.29	1539.1	-59.895	370.35	1019.3	-234.74	302.53	247.19	107.59	309.23	242.32	37.003	348.82	782.37	-271.78	282.65	22.148	124.16	450.19	1000	176.59	263.02	162.21	33.923	374.97	26.996	80.736	184.07	79.13	83.796	130.55	54.161	36.817	678.15	23.309	-67.609
449	2.245	547	1578.8	-50.249	390.62	1407.6	-10.272	518.47	1331.5	-17.938	599.61	1109.2	-13.062	353.17	1302	90.803	546.98	930.33	-141.86	553.02	937.62	134.97	471.56	1344	156.93	487.77	1135.1	223.16	492.49	1027.5	249.95	597.55	914.6	229.31	613.76	802.7	235.37	671.86	785.74	220.29	450.58	1340.5	-186.08	405.48	893.23	-261.32	392.64	730.58	-271.63	411.55	772.01	-230.48	444.9	734.86	171.72	492.81	643.42	115.83	429.15	643.35	149.82	383.25	448.67	116.86	485.9	726.23	-182.92	550.2	552.21	-156.88	581.9	660.81	-135.69	583.4	454.12	-142.96	656.72	375.08	-72.88	710.04	194.8	-81.834	651.18	278.53	-145.03	685.61	284.11	-81.539	862.77	100.2	-100.88	894.26	111.69	-127.44	729.47	93.497	-49.377	363.02	1122.3	-3.5265	648.83	830.42	175.75	830.81	63.727	-159.35	518.55	635.16	-172.39	556.38	1582.3	22.326	712.11	71.423	-127.12	414.95	552.26	130.88	337.77	955.32	-53.83	341.82	967.36	59.8	389.83	1532.9	65.474	369.38	1004.4	-165.77	331.73	36.521	41.903	406.48	1134.2	-227.81	358.52	322.42	39.742	205.03	90.165	4.1295	378.9	1538.1	-60.894	375.6	1018.4	-235.21	304.33	247.37	107.67	311.05	242.32	37.076	352.56	781.73	-272.19	282.68	22.121	124.14	456.13	999.07	176.08	264.14	162.61	34.117	375.01	26.979	80.678	184.45	80.215	83.991	130.77	55.662	37.105	685.42	23.005	-68.015
